<svg xmlns="http://www.w3.org/2000/svg" xmlns:xlink="http://www.w3.org/1999/xlink" viewBox="0 0 81 81" fill="#fff" fill-rule="evenodd" stroke="#000" stroke-linecap="round" stroke-linejoin="round"><use xlink:href="#A" x=".5" y=".5"/><symbol id="A" overflow="visible"><path d="M40 42.773c2.347 0 4.544-.917 6.208-2.581l16.448-16.448v-.875H17.323v.875l16.469 16.448c1.664 1.664 3.861 2.581 6.208 2.581zm7.765-1.024c-2.069 2.091-4.821 3.221-7.765 3.221s-5.696-1.131-7.765-3.221L17.323 26.859v30.272h45.333V26.859L47.765 41.749zM1.323 0A1.25 1.25 0 0 0 0 1.323v16c0 .811.533 1.344 1.323 1.344h8c.811 0 1.344-.533 1.344-1.344v-6.656h58.667v6.677c0 .79.533 1.323 1.6 1.323h7.723c.811 0 1.344-.533 1.344-1.323v-16C80 .533 79.467 0 78.677 0H1.323zm77.355 80A1.25 1.25 0 0 0 80 78.677V62.933a1.25 1.25 0 0 0-1.323-1.323h-7.744a1.25 1.25 0 0 0-1.323 1.323v6.4H10.667v-6.656c0-.811-.533-1.344-1.6-1.344H1.323c-.789 0-1.323.533-1.323 1.6v15.744A1.25 1.25 0 0 0 1.323 80h77.355z" fill="#0072c6" stroke="none"/></symbol></svg>